<svg width="22" height="20" viewBox="0 0 22 20" fill="none" xmlns="http://www.w3.org/2000/svg">
<path d="M0.826172 9.67871V8.27246C0.826172 7.83301 0.955078 7.48145 1.21289 7.21777C1.47656 6.94824 1.83105 6.81348 2.27637 6.81348H20.2148C20.6602 6.81348 21.0146 6.94824 21.2783 7.21777C21.542 7.48145 21.6738 7.83301 21.6738 8.27246V9.67871C21.6738 10.124 21.542 10.4785 21.2783 10.7422C21.0146 11 20.6602 11.1289 20.2148 11.1289H2.27637C1.83105 11.1289 1.47656 11 1.21289 10.7422C0.955078 10.4785 0.826172 10.124 0.826172 9.67871ZM2.68066 8.41309C2.50488 8.41309 2.41699 8.50391 2.41699 8.68555V9.25684C2.41699 9.44434 2.50488 9.53809 2.68066 9.53809H19.8105C19.998 9.53809 20.0918 9.44434 20.0918 9.25684V8.68555C20.0918 8.50391 19.998 8.41309 19.8105 8.41309H2.68066ZM6.56543 19.9355C5.85645 19.9355 5.29395 19.8125 4.87793 19.5664C4.46777 19.3203 4.16016 19.001 3.95508 18.6084C3.75 18.2158 3.60352 17.8027 3.51562 17.3691L2.10938 10.6367L3.67383 10.3555L5.00098 16.7803C5.07715 17.1553 5.17676 17.457 5.2998 17.6855C5.42285 17.9141 5.60156 18.0781 5.83594 18.1777C6.07031 18.2832 6.39844 18.3359 6.82031 18.3359H15.6797C16.1016 18.3359 16.4297 18.2832 16.6641 18.1777C16.8984 18.0781 17.0742 17.9141 17.1914 17.6855C17.3145 17.457 17.417 17.1553 17.499 16.7803L18.8262 10.3555L20.3906 10.6367L18.9844 17.3691C18.8965 17.8027 18.75 18.2158 18.5449 18.6084C18.3398 19.001 18.0293 19.3203 17.6133 19.5664C17.2031 19.8125 16.6465 19.9355 15.9434 19.9355H6.56543ZM7.49707 17.457C7.32715 17.4863 7.18066 17.46 7.05762 17.3779C6.94043 17.2959 6.86719 17.1758 6.83789 17.0176L6.1084 12.5352C6.0791 12.3828 6.11133 12.251 6.20508 12.1396C6.29883 12.0225 6.43359 11.9463 6.60938 11.9111C6.7793 11.8877 6.92578 11.917 7.04883 11.999C7.17188 12.0811 7.24805 12.1982 7.27734 12.3506L7.99805 16.833C8.02148 16.9854 7.98926 17.1201 7.90137 17.2373C7.81348 17.3545 7.67871 17.4277 7.49707 17.457ZM10.0195 17.3955C9.84961 17.4072 9.70605 17.3662 9.58887 17.2725C9.47754 17.1787 9.41602 17.0498 9.4043 16.8857L9.13184 12.4736C9.12012 12.3096 9.16699 12.1748 9.27246 12.0693C9.37793 11.9639 9.51562 11.9053 9.68555 11.8936C9.86133 11.876 10.0049 11.917 10.1162 12.0166C10.2275 12.1162 10.2891 12.2451 10.3008 12.4033L10.5732 16.833C10.5791 16.9854 10.5322 17.1143 10.4326 17.2197C10.333 17.3311 10.1953 17.3896 10.0195 17.3955ZM12.4893 17.3955C12.3135 17.3896 12.1758 17.3311 12.0762 17.2197C11.9766 17.1143 11.9297 16.9854 11.9355 16.833L12.208 12.4033C12.2197 12.2451 12.2812 12.1162 12.3926 12.0166C12.5039 11.917 12.6475 11.876 12.8232 11.8936C12.9932 11.9053 13.1309 11.9639 13.2363 12.0693C13.3418 12.1748 13.3887 12.3096 13.377 12.4736L13.1045 16.8857C13.0928 17.0498 13.0283 17.1787 12.9111 17.2725C12.7998 17.3662 12.6592 17.4072 12.4893 17.3955ZM15.0029 17.457C14.8213 17.4277 14.6865 17.3545 14.5986 17.2373C14.5107 17.1201 14.4785 16.9854 14.502 16.833L15.2227 12.3506C15.2578 12.1982 15.334 12.0811 15.4512 11.999C15.5742 11.917 15.7207 11.8877 15.8906 11.9111C16.0664 11.9463 16.2012 12.0225 16.2949 12.1396C16.3887 12.251 16.4238 12.3828 16.4004 12.5352L15.6621 17.0176C15.6387 17.1758 15.5654 17.2959 15.4424 17.3779C15.3193 17.46 15.1729 17.4863 15.0029 17.457ZM3.67383 7.25293L7.28613 1.14453C7.41504 0.921875 7.58496 0.792969 7.7959 0.757812C8.0127 0.722656 8.21191 0.754883 8.39355 0.854492C8.58105 0.954102 8.71289 1.10645 8.78906 1.31152C8.87109 1.51074 8.84766 1.72754 8.71875 1.96191L5.67773 7.25293H3.67383ZM16.8223 7.25293L13.7812 1.96191C13.6523 1.72754 13.626 1.51074 13.7021 1.31152C13.7842 1.10645 13.9189 0.954102 14.1064 0.854492C14.2939 0.760742 14.4932 0.731445 14.7041 0.766602C14.915 0.801758 15.085 0.927734 15.2139 1.14453L18.8262 7.25293H16.8223Z" fill="#007AFF"/>
</svg>
