<svg width="21" height="19" viewBox="0 0 21 19" fill="none" xmlns="http://www.w3.org/2000/svg">
<path d="M1.22754 9.51367V7.7998C2.56348 8.34473 4.01074 8.75195 5.56934 9.02148C7.12793 9.28516 8.76855 9.41699 10.4912 9.41699C12.2197 9.41699 13.8633 9.28516 15.4219 9.02148C16.9805 8.75195 18.4277 8.34766 19.7637 7.80859L19.7725 9.51367C18.3838 10.0059 16.9072 10.375 15.3428 10.6211C13.7842 10.8672 12.167 10.9902 10.4912 10.9902C8.82129 10.9902 7.2041 10.8672 5.63965 10.6211C4.08105 10.375 2.61035 10.0059 1.22754 9.51367ZM9.12012 12.625C8.41113 12.625 8.05664 12.2822 8.05664 11.5967V10.085H12.9258V11.5967C12.9258 12.2822 12.5713 12.625 11.8623 12.625H9.12012ZM2.94141 18.3994C2.00977 18.3994 1.30371 18.1621 0.823242 17.6875C0.342773 17.2188 0.102539 16.5186 0.102539 15.5869V6.98242C0.102539 6.04492 0.342773 5.3418 0.823242 4.87305C1.30371 4.4043 2.00977 4.16992 2.94141 4.16992H18.0498C18.9873 4.16992 19.6934 4.4043 20.168 4.87305C20.6484 5.3418 20.8887 6.04492 20.8887 6.98242V15.5869C20.8887 16.5186 20.6484 17.2188 20.168 17.6875C19.6934 18.1621 18.9873 18.3994 18.0498 18.3994H2.94141ZM3.01172 16.7383H17.9795C18.3604 16.7383 18.6504 16.6357 18.8496 16.4307C19.0547 16.2314 19.1572 15.9326 19.1572 15.5342V7.03516C19.1572 6.63086 19.0547 6.3291 18.8496 6.12988C18.6504 5.93066 18.3604 5.83105 17.9795 5.83105H3.01172C2.63086 5.83105 2.33789 5.93066 2.13281 6.12988C1.93359 6.3291 1.83398 6.63086 1.83398 7.03516V15.5342C1.83398 15.9326 1.93359 16.2314 2.13281 16.4307C2.33789 16.6357 2.63086 16.7383 3.01172 16.7383ZM5.88574 4.88184V3.36133C5.88574 2.53516 6.11426 1.91992 6.57129 1.51562C7.02832 1.11133 7.64941 0.90918 8.43457 0.90918H12.5391C13.3711 0.90918 14.0039 1.11133 14.4375 1.51562C14.877 1.91992 15.0967 2.53516 15.0967 3.36133V4.87305H13.4971V3.37012C13.4971 3.05371 13.4092 2.81055 13.2334 2.64062C13.0635 2.4707 12.8174 2.38574 12.4951 2.38574H8.49609C8.17383 2.38574 7.9248 2.4707 7.74902 2.64062C7.57324 2.81055 7.48535 3.05371 7.48535 3.37012V4.88184H5.88574Z" fill="#007AFF"/>
</svg>
