<svg width="19" height="21" viewBox="0 0 19 21" fill="none" xmlns="http://www.w3.org/2000/svg">
<path d="M0.443359 3.9043C0.443359 3.41211 0.589844 3.02539 0.882812 2.74414C1.18164 2.46289 1.58301 2.32227 2.08691 2.32227H3.75684C3.85059 1.86523 4.06152 1.51074 4.38965 1.25879C4.72363 1.00098 5.16309 0.87207 5.70801 0.87207H12.7832C13.334 0.87207 13.7734 1.00098 14.1016 1.25879C14.4297 1.51074 14.6406 1.86523 14.7344 2.32227H16.4043C16.9082 2.32227 17.3066 2.46289 17.5996 2.74414C17.8984 3.02539 18.0479 3.41211 18.0479 3.9043C18.0479 5.09375 17.8516 6.14551 17.459 7.05957C17.0664 7.96777 16.4805 8.74121 15.7012 9.37988C14.9219 10.0127 13.9521 10.5107 12.792 10.874C12.5635 11.1611 12.3203 11.4248 12.0625 11.665C11.8105 11.9053 11.5586 12.1133 11.3066 12.2891V15.8398H12.3262C12.959 15.8398 13.4424 16.0156 13.7764 16.3672C14.1104 16.7129 14.2773 17.1846 14.2773 17.7822V19.6367C14.2773 19.8711 14.1982 20.0615 14.04 20.208C13.8818 20.3545 13.6914 20.4277 13.4688 20.4277H5.01367C4.79688 20.4277 4.60938 20.3545 4.45117 20.208C4.29297 20.0615 4.21387 19.8711 4.21387 19.6367V17.7822C4.21387 17.1846 4.38086 16.7129 4.71484 16.3672C5.04883 16.0156 5.5293 15.8398 6.15625 15.8398H7.18457V12.2803C6.93262 12.1045 6.68066 11.8994 6.42871 11.665C6.17676 11.4248 5.93652 11.1611 5.70801 10.874C4.54199 10.5107 3.56934 10.0127 2.79004 9.37988C2.01074 8.74121 1.4248 7.96777 1.03223 7.05957C0.639648 6.14551 0.443359 5.09375 0.443359 3.9043ZM1.91113 4.10645C1.91113 5.23145 2.12793 6.18945 2.56152 6.98047C2.99512 7.77148 3.63086 8.38672 4.46875 8.82617C4.22852 8.33398 4.03809 7.80664 3.89746 7.24414C3.75684 6.68164 3.68652 6.0957 3.68652 5.48633V3.86035H2.15723C2.08691 3.86035 2.02832 3.88672 1.98145 3.93945C1.93457 3.98633 1.91113 4.04199 1.91113 4.10645ZM5.26855 5.73242C5.26855 6.35352 5.36816 6.95117 5.56738 7.52539C5.7666 8.09961 6.02148 8.62988 6.33203 9.11621C6.64844 9.60254 6.98828 10.0273 7.35156 10.3906C7.71484 10.7539 8.06348 11.0381 8.39746 11.2432C8.73145 11.4424 9.0127 11.542 9.24121 11.542C9.47559 11.542 9.75977 11.4424 10.0938 11.2432C10.4277 11.0381 10.7764 10.7539 11.1396 10.3906C11.5029 10.0273 11.8398 9.60254 12.1504 9.11621C12.4668 8.62988 12.7246 8.09961 12.9238 7.52539C13.123 6.95117 13.2227 6.35352 13.2227 5.73242V2.96387C13.2227 2.81152 13.1758 2.68848 13.082 2.59473C12.9883 2.50098 12.8652 2.4541 12.7129 2.4541H5.77832C5.62598 2.4541 5.50293 2.50098 5.40918 2.59473C5.31543 2.68848 5.26855 2.81152 5.26855 2.96387V5.73242ZM5.7959 18.8457H12.6953V17.9141C12.6953 17.7676 12.6484 17.6475 12.5547 17.5537C12.4668 17.4658 12.3467 17.4219 12.1943 17.4219H6.28809C6.1416 17.4219 6.02148 17.4658 5.92773 17.5537C5.83984 17.6475 5.7959 17.7676 5.7959 17.9141V18.8457ZM8.69629 15.8398H9.79492V13.0361C9.60156 13.0889 9.41699 13.1152 9.24121 13.1152C9.07129 13.1152 8.88965 13.0889 8.69629 13.0361V15.8398ZM14.0225 8.82617C14.8604 8.38672 15.4961 7.77148 15.9297 6.98047C16.3633 6.18945 16.5801 5.23145 16.5801 4.10645C16.5801 4.04199 16.5566 3.98633 16.5098 3.93945C16.4629 3.88672 16.4043 3.86035 16.334 3.86035H14.8047V5.48633C14.8047 6.0957 14.7314 6.68164 14.585 7.24414C14.4443 7.80664 14.2568 8.33398 14.0225 8.82617Z" fill="#007AFF"/>
</svg>
